<svg width="34" height="35" viewBox="0 0 34 35" fill="none" xmlns="http://www.w3.org/2000/svg">
  <path d="M18.7896 8.77676H15.2107V17.9119H18.7896V8.77676Z" fill="currentColor"/>
  <path
    d="M15.7296 21.1544C15.3896 21.4768 15.2107 21.9425 15.2107 22.4262C15.2107 22.8919 15.4075 23.3576 15.7296 23.6979C16.0696 24.0382 16.517 24.2174 17.0002 24.2174C17.4654 24.2174 17.9307 24.0203 18.2707 23.6979C18.6107 23.3576 18.7896 22.9098 18.7896 22.4262C18.7896 21.9604 18.5928 21.4947 18.2707 21.1544C17.6086 20.4917 16.4096 20.4917 15.7296 21.1544Z"
    fill="currentColor"/>
  <path
    d="M28.6316 0H5.36842C2.41579 0 0 2.41812 0 5.37359V25.8112C0 28.7666 2.41579 31.1847 5.36842 31.1847H12.4189L15.7474 34.4806C16.0874 34.8209 16.5526 35 17 35C17.4474 35 17.9126 34.8209 18.2526 34.4806L21.5811 31.1847H28.6316C31.5842 31.1847 34 28.7666 34 25.8112V5.37359C34 2.41812 31.5842 0 28.6316 0ZM30.4211 25.8112C30.4211 26.7963 29.6158 27.6024 28.6316 27.6024H20.8474C20.3821 27.6024 19.9168 27.7815 19.5947 28.1218L17 30.7011L14.4053 28.1218C14.0653 27.7815 13.6179 27.6024 13.1526 27.6024H5.36842C4.38421 27.6024 3.57895 26.7963 3.57895 25.8112V5.37359C3.57895 4.38843 4.38421 3.58239 5.36842 3.58239H28.6316C29.6158 3.58239 30.4211 4.38843 30.4211 5.37359V25.8112Z"
    fill="currentColor"/>
</svg>
