<svg width="39" height="40" viewBox="0 0 39 40" fill="currentColor" xmlns="http://www.w3.org/2000/svg">
  <path d="M32.8421 0H6.1579C2.77105 0 0 2.76356 0 6.14125V29.4985C0 32.8762 2.77105 35.6397 6.1579 35.6397H14.2453L18.0632 39.4063C18.4532 39.7953 18.9868 40 19.5 40C20.0132 40 20.5468 39.7953 20.9368 39.4063L24.7547 35.6397H32.8421C36.2289 35.6397 39 32.8762 39 29.4985V6.14125C39 2.76356 36.2289 0 32.8421 0ZM34.8947 29.4985C34.8947 30.6244 33.9711 31.5455 32.8421 31.5455H23.9132C23.3795 31.5455 22.8458 31.7503 22.4763 32.1392L19.5 35.087L16.5237 32.1392C16.1337 31.7503 15.6205 31.5455 15.0868 31.5455H6.1579C5.02895 31.5455 4.10526 30.6244 4.10526 29.4985V6.14125C4.10526 5.01535 5.02895 4.09417 6.1579 4.09417H32.8421C33.9711 4.09417 34.8947 5.01535 34.8947 6.14125V29.4985Z"/>
</svg>
