<svg width="220" height="56" viewBox="0 0 220 56" fill="none" xmlns="http://www.w3.org/2000/svg">
  <path d="M72.9609 43.3096H78.9462V29.5252H93.3911V24.3424H78.9462V17.354H96.0493V12.1211H72.9609V43.3096Z"
        fill="currentColor"/>
  <path d="M100.621 17.354H111.421V43.3096H117.407V17.354H128.207V12.1211H100.621V17.354Z" fill="currentColor"/>
  <path
    d="M151.89 27.7613L140.864 12.2214L140.789 12.1211H135.631V43.3096H141.616V22.6371L144.04 26.3988L151.647 37.2491L151.848 37.5334L159.572 26.4406C160.634 24.9359 161.486 23.6569 162.113 22.6371V43.3013H168.098V12.1211H162.941L151.89 27.7613Z"
    fill="currentColor"/>
  <path
    d="M204.663 16.3168C201.545 13.2239 197.607 11.6523 192.96 11.6523C188.303 11.6523 184.366 13.2239 181.248 16.3168C178.139 19.4181 176.559 23.2467 176.559 27.7189C176.559 32.2162 178.139 36.0699 181.248 39.1712C184.358 42.2641 188.303 43.8356 192.96 43.8356C197.616 43.8356 201.553 42.2641 204.663 39.1712C207.772 36.0782 209.352 32.2246 209.352 27.7189C209.352 23.2467 207.772 19.4098 204.663 16.3168ZM200.215 35.2423C198.284 37.3154 195.86 38.3603 193.01 38.3603C190.126 38.3603 187.676 37.307 185.729 35.2423C183.781 33.1692 182.786 30.6363 182.786 27.7106C182.786 24.7932 183.773 22.2687 185.729 20.2039C187.676 18.1475 190.126 17.1026 193.01 17.1026C195.86 17.1026 198.284 18.1475 200.224 20.1955C202.163 22.2519 203.141 24.7764 203.141 27.7022C203.133 30.6363 202.146 33.1692 200.215 35.2423Z"
    fill="currentColor"/>
  <path d="M6.52025 34.2648L27.7362 13.0489V0L0 27.7445L6.52025 34.2648Z" fill="currentColor"/>
  <path d="M27.737 55.4726V37.4082L18.709 46.4446L27.737 55.4726Z" fill="currentColor"/>
  <path d="M27.7372 18.541L9.27148 37.0067L15.9506 43.6858L27.7372 31.8992V18.541Z" fill="currentColor"/>
  <path d="M31.2129 0V13.0489L45.9002 27.7362L31.2129 42.4318V55.4807L58.949 27.7362L31.2129 0Z" fill="currentColor"/>
  <path
    d="M214.583 1.00391C211.549 1.00391 209.133 3.36123 209.133 6.29534C209.133 9.29633 211.549 11.6453 214.583 11.6453C217.643 11.6453 220 9.28797 220 6.29534C220 3.35287 217.651 1.00391 214.583 1.00391ZM214.617 10.5168C212.234 10.5168 210.487 8.6443 210.487 6.29534C210.487 3.97146 212.226 2.0739 214.583 2.0739C216.94 2.0739 218.646 3.97982 218.646 6.32878C218.646 8.6443 216.94 10.5168 214.617 10.5168Z"
    fill="currentColor"/>
  <path
    d="M215.811 6.45349V6.38662C216.455 6.19435 216.906 5.74295 216.906 5.1578C216.906 4.63952 216.681 4.22156 216.388 3.99586C216.003 3.77015 215.552 3.61133 214.549 3.61133C213.68 3.61133 213.002 3.6782 212.518 3.77015V9.06159H213.746V6.92997H214.323C215 6.92997 215.326 7.18911 215.418 7.7659C215.577 8.37613 215.677 8.86097 215.836 9.05323H217.157C217.032 8.86097 216.931 8.53496 216.772 7.73246C216.614 7.03028 216.329 6.64575 215.811 6.45349ZM214.357 6.0606H213.78V4.54757C213.905 4.51413 214.139 4.4807 214.457 4.4807C215.234 4.4807 215.585 4.80671 215.585 5.28319C215.585 5.8349 215.034 6.0606 214.357 6.0606Z"
    fill="currentColor"/>
</svg>
