<svg width="12" height="10" viewBox="0 0 12 10" fill="none" xmlns="http://www.w3.org/2000/svg">
  <path
    d="M11.7484 3.26195L6.23913 0.0666489C6.09117 -0.0202632 5.90868 -0.0202632 5.75578 0.0666489L0.251462 3.26195C0.0541745 3.37442 -0.039537 3.60959 0.014717 3.83454C0.0739032 4.05949 0.266258 4.21798 0.493139 4.21798H1.0998V9.48894C1.0998 9.77013 1.32175 10.0002 1.59302 10.0002C1.86429 10.0002 2.08623 9.77013 2.08623 9.48894V3.70673C2.08623 3.59937 2.05664 3.50223 1.99745 3.41532L5.99745 1.09426L9.99745 3.41532C9.9432 3.49712 9.90868 3.59937 9.90868 3.70673V9.48894C9.90868 9.77013 10.1306 10.0002 10.4019 10.0002C10.6732 10.0002 10.8951 9.77013 10.8951 9.48894V4.21798H11.5018C11.7287 4.21798 11.921 4.05949 11.9802 3.83454C12.0394 3.60959 11.9407 3.37442 11.7484 3.26195Z"
    fill="currentColor"/>
  <path
    d="M5.99725 4.77002C5.09959 4.77002 4.36963 5.52667 4.36963 6.45714V9.48883C4.36963 9.69844 4.53732 9.87227 4.73954 9.87227H7.25496C7.45718 9.87227 7.62487 9.69844 7.62487 9.48883V6.45714C7.6298 5.52667 6.89491 4.77002 5.99725 4.77002ZM6.88998 9.1054H5.11439V6.45714C5.11439 5.951 5.5139 5.53689 6.00218 5.53689C6.49047 5.53689 6.88998 5.951 6.88998 6.45714V9.1054Z"
    fill="currentColor"/>
</svg>
